<?xml version="1.0" encoding="utf-8"?>
<!-- Generator: Adobe Illustrator 27.2.0, SVG Export Plug-In . SVG Version: 6.00 Build 0)  -->
<svg version="1.1" id="exportSvg" xmlns="http://www.w3.org/2000/svg" xmlns:xlink="http://www.w3.org/1999/xlink" x="0px" y="0px"
	 viewBox="0 0 701 355" style="enable-background:new 0 0 701 355;" xml:space="preserve">
<style type="text/css">
	.st0{enable-background:new    ;}
	.st1{fill:#FFFFFF;}
	.st2{font-family:'ArialMT';}
	.st3{font-size:12px;}
	.st4{fill:#181818;}
	.st5{fill:#18A1CD;}
	.st6{fill:#00527A;}
</style>
<text transform="matrix(1 0 0 1 67.5 109.4219)" class="st0"><tspan x="0" y="0" class="st1 st2 st3">Takeoff Run 6,043 ft</tspan><tspan x="108.7" y="0" class="st4 st2 st3">. </tspan></text>
<text transform="matrix(1 0 0 1 488.125 108.9414)" class="st4 st2 st3">Max. Runway Length 11,483 ft.</text>
<text transform="matrix(1 0 0 1 51.5 147.0156)" class="st4 st2 st3">Helsinki</text>
<rect x="103.9" y="132.2" class="st5" width="391.6" height="40"/>
<text transform="matrix(1 0 0 1 51.5 212.0156)" class="st4 st2 st3">Denver</text>
<rect x="103.9" y="132.2" class="st6" width="206.1" height="40"/>
<rect x="103.9" y="197.2" class="st5" width="545.6" height="40"/>
<rect x="103.9" y="197.2" class="st6" width="339.5" height="40"/>
<rect x="-96" y="-59" style="fill:none;" width="134" height="23"/>
<text transform="matrix(1 0 0 1 -96 -50.4805)"><tspan x="0" y="0" class="st3" style="font-family:'MyriadPro-Regular';">L</tspan><tspan x="5.7" y="0" class="st1 st3" style="font-family:'MyriadPro-Regular';">orem ipsum dolor sit </tspan><tspan x="0" y="14.4" class="st1 st3" style="font-family:'MyriadPro-Regular';">amet, consectetuer adipi</tspan></text>
<text transform="matrix(1 0 0 1 109.3633 155.9229)" class="st1 st2 st3">Takeoff Run 6,043 ft.</text>
<text transform="matrix(1 0 0 1 109.6392 222.2192)" class="st1 st2 st3">Takeoff Run 9,954 ft.</text>
<text transform="matrix(1 0 0 1 472.582 222.2183)" class="st1 st2 st3">Max. Runway Length 16,000 ft.</text>
<text transform="matrix(1 0 0 1 327.1016 155.9224)" class="st1 st2 st3">Max. Runway Length 11,483 ft.</text>
</svg>
