<?xml version="1.0" encoding="utf-8"?>
<!-- Generator: Adobe Illustrator 27.2.0, SVG Export Plug-In . SVG Version: 6.00 Build 0)  -->
<svg version="1.1" id="exportSvg" xmlns="http://www.w3.org/2000/svg" xmlns:xlink="http://www.w3.org/1999/xlink" x="0px" y="0px"
	 viewBox="0 0 692 117" style="enable-background:new 0 0 692 117;" xml:space="preserve">
<style type="text/css">
	.st0{enable-background:new    ;}
	.st1{fill:#181818;}
	.st2{font-family:'Arial-BoldMT';}
	.st3{font-size:12px;}
	.st4{font-family:'ArialMT';}
	.st5{fill:#CECECE;}
	.st6{fill:#EB0905;}
	.st7{fill:#FFFFFF;}
	.st8{fill:none;}
</style>
<text transform="matrix(1 0 0 1 58.5 -21.5781)" class="st0"><tspan x="0" y="0" class="st7 st4 st3">Takeoff Run 6,043 ft</tspan><tspan x="108.7" y="0" class="st1 st4 st3">. </tspan></text>
<text transform="matrix(1 0 0 1 17.8286 37.2188)" class="st0"><tspan x="0" y="0" class="st1 st2 st3">Helsinki</tspan><tspan x="0" y="14.4" class="st1 st4 st3">elev. 179 ft.</tspan></text>
<rect x="94.9" y="17.2" class="st5" width="391.6" height="40"/>
<text transform="matrix(1 0 0 1 17.8286 80.6826)" class="st0"><tspan x="0" y="0" class="st1 st2 st3">Denver</tspan><tspan x="0" y="14.4" class="st1 st4 st3">elev. 5140 ft.</tspan></text>
<rect x="94.9" y="17.2" class="st6" width="206.1" height="40"/>
<rect x="94.9" y="66.2" class="st5" width="545.6" height="40"/>
<rect x="94.9" y="66.2" class="st6" width="339.5" height="40"/>
<rect x="-105" y="-190" class="st8" width="134" height="23"/>
<text transform="matrix(1 0 0 1 -105 -181.4805)"><tspan x="0" y="0" class="st3" style="font-family:'MyriadPro-Regular';">L</tspan><tspan x="5.7" y="0" class="st7 st3" style="font-family:'MyriadPro-Regular';">orem ipsum dolor sit </tspan><tspan x="0" y="14.4" class="st7 st3" style="font-family:'MyriadPro-Regular';">amet, consectetuer adipi</tspan></text>
<text transform="matrix(1 0 0 1 100.6392 89.4194)" class="st7 st4 st3">Takeoff Run 9,954 ft.</text>
<text transform="matrix(1 0 0 1 467.582 89.4194)" class="st6 st4 st3">Max. Runway Length 16,000 ft.</text>
<g>
	<text transform="matrix(1 0 0 1 100.3633 40.4194)" class="st7 st4 st3">Takeoff Run 6,043 ft.</text>
	<text transform="matrix(1 0 0 1 318.1016 40.4194)" class="st6 st4 st3">Max. Runway Length 11,483 ft.</text>
</g>
<rect x="51" y="80.3" class="st8" width="10" height="3.7"/>
</svg>
